<mxfile host="Electron" agent="Mozilla/5.0 (Windows NT 10.0; Win64; x64) AppleWebKit/537.36 (KHTML, like Gecko) draw.io/24.7.8 Chrome/128.0.6613.36 Electron/32.0.1 Safari/537.36" version="24.7.8">
  <diagram name="Page-1" id="f7GKxFGHTD0J_DInT8v6">
    <mxGraphModel dx="819" dy="505" grid="1" gridSize="10" guides="1" tooltips="1" connect="1" arrows="1" fold="1" page="1" pageScale="1" pageWidth="827" pageHeight="1169" math="0" shadow="0">
      <root>
        <mxCell id="0" />
        <mxCell id="1" parent="0" />
        <mxCell id="vpuohKYuu9RxIWR-LXXm-1" value="API" style="shape=umlLifeline;perimeter=lifelinePerimeter;whiteSpace=wrap;html=1;container=1;dropTarget=0;collapsible=0;recursiveResize=0;outlineConnect=0;portConstraint=eastwest;newEdgeStyle={&quot;edgeStyle&quot;:&quot;elbowEdgeStyle&quot;,&quot;elbow&quot;:&quot;vertical&quot;,&quot;curved&quot;:0,&quot;rounded&quot;:0};fontStyle=1" vertex="1" parent="1">
          <mxGeometry x="364" y="240" width="100" height="520" as="geometry" />
        </mxCell>
        <mxCell id="vpuohKYuu9RxIWR-LXXm-2" value="" style="html=1;points=[[0,0,0,0,5],[0,1,0,0,-5],[1,0,0,0,5],[1,1,0,0,-5]];perimeter=orthogonalPerimeter;outlineConnect=0;targetShapes=umlLifeline;portConstraint=eastwest;newEdgeStyle={&quot;curved&quot;:0,&quot;rounded&quot;:0};" vertex="1" parent="vpuohKYuu9RxIWR-LXXm-1">
          <mxGeometry x="45" y="230" width="10" height="270" as="geometry" />
        </mxCell>
        <mxCell id="vpuohKYuu9RxIWR-LXXm-3" value="Database" style="shape=umlLifeline;perimeter=lifelinePerimeter;whiteSpace=wrap;html=1;container=1;dropTarget=0;collapsible=0;recursiveResize=0;outlineConnect=0;portConstraint=eastwest;newEdgeStyle={&quot;edgeStyle&quot;:&quot;elbowEdgeStyle&quot;,&quot;elbow&quot;:&quot;vertical&quot;,&quot;curved&quot;:0,&quot;rounded&quot;:0};fontStyle=1" vertex="1" parent="1">
          <mxGeometry x="640" y="240" width="100" height="460" as="geometry" />
        </mxCell>
        <mxCell id="vpuohKYuu9RxIWR-LXXm-4" value="" style="html=1;points=[[0,0,0,0,5],[0,1,0,0,-5],[1,0,0,0,5],[1,1,0,0,-5]];perimeter=orthogonalPerimeter;outlineConnect=0;targetShapes=umlLifeline;portConstraint=eastwest;newEdgeStyle={&quot;curved&quot;:0,&quot;rounded&quot;:0};" vertex="1" parent="vpuohKYuu9RxIWR-LXXm-3">
          <mxGeometry x="45" y="280" width="10" height="170" as="geometry" />
        </mxCell>
        <mxCell id="vpuohKYuu9RxIWR-LXXm-5" value="" style="shape=umlLifeline;perimeter=lifelinePerimeter;whiteSpace=wrap;html=1;container=1;dropTarget=0;collapsible=0;recursiveResize=0;outlineConnect=0;portConstraint=eastwest;newEdgeStyle={&quot;curved&quot;:0,&quot;rounded&quot;:0};participant=umlActor;" vertex="1" parent="1">
          <mxGeometry x="170" y="240" width="20" height="510" as="geometry" />
        </mxCell>
        <mxCell id="vpuohKYuu9RxIWR-LXXm-6" value="User" style="text;html=1;align=center;verticalAlign=middle;whiteSpace=wrap;rounded=0;fontStyle=1" vertex="1" parent="1">
          <mxGeometry x="100" y="246" width="60" height="30" as="geometry" />
        </mxCell>
        <mxCell id="vpuohKYuu9RxIWR-LXXm-7" value="Ref" style="shape=umlFrame;whiteSpace=wrap;html=1;pointerEvents=0;recursiveResize=0;container=1;collapsible=0;width=50;" vertex="1" parent="1">
          <mxGeometry x="170" y="320" width="530" height="120" as="geometry" />
        </mxCell>
        <mxCell id="vpuohKYuu9RxIWR-LXXm-8" value="Login" style="text;align=center;html=1;fontStyle=1" vertex="1" parent="vpuohKYuu9RxIWR-LXXm-7">
          <mxGeometry width="100" height="20" relative="1" as="geometry">
            <mxPoint x="60" y="50" as="offset" />
          </mxGeometry>
        </mxCell>
        <mxCell id="vpuohKYuu9RxIWR-LXXm-9" value="1: Update an Expense" style="html=1;verticalAlign=bottom;endArrow=block;curved=0;rounded=0;fontStyle=1" edge="1" parent="1">
          <mxGeometry x="0.005" width="80" relative="1" as="geometry">
            <mxPoint x="179.81034482758605" y="471" as="sourcePoint" />
            <mxPoint x="409" y="471" as="targetPoint" />
            <mxPoint as="offset" />
          </mxGeometry>
        </mxCell>
        <mxCell id="vpuohKYuu9RxIWR-LXXm-10" value="2: Update an Expense" style="html=1;verticalAlign=bottom;endArrow=block;curved=0;rounded=0;fontStyle=1" edge="1" parent="1" target="vpuohKYuu9RxIWR-LXXm-4">
          <mxGeometry width="80" relative="1" as="geometry">
            <mxPoint x="420" y="520" as="sourcePoint" />
            <mxPoint x="590" y="520.0000000000001" as="targetPoint" />
          </mxGeometry>
        </mxCell>
        <mxCell id="vpuohKYuu9RxIWR-LXXm-11" value="" style="html=1;verticalAlign=bottom;labelBackgroundColor=none;endArrow=block;endFill=1;dashed=1;rounded=0;" edge="1" parent="1">
          <mxGeometry width="160" relative="1" as="geometry">
            <mxPoint x="689.5" y="690" as="sourcePoint" />
            <mxPoint x="419" y="690" as="targetPoint" />
          </mxGeometry>
        </mxCell>
        <mxCell id="vpuohKYuu9RxIWR-LXXm-12" value="3: Expense updated" style="text;html=1;align=center;verticalAlign=middle;whiteSpace=wrap;rounded=0;fontSize=11;fontStyle=1" vertex="1" parent="1">
          <mxGeometry x="500" y="660" width="110" height="30" as="geometry" />
        </mxCell>
        <mxCell id="vpuohKYuu9RxIWR-LXXm-13" value="4: Display OK message" style="html=1;verticalAlign=bottom;endArrow=block;curved=0;rounded=0;fontStyle=1" edge="1" parent="1">
          <mxGeometry x="0.0005" width="80" relative="1" as="geometry">
            <mxPoint x="409" y="740" as="sourcePoint" />
            <mxPoint x="179.92857142857144" y="740" as="targetPoint" />
            <mxPoint as="offset" />
          </mxGeometry>
        </mxCell>
      </root>
    </mxGraphModel>
  </diagram>
</mxfile>
